<svg xmlns="http://www.w3.org/2000/svg" width="480" height="480" viewBox="0 0 240 240"><defs><linearGradient id="a" x1="0" x2="240" y1="0" y2="0" gradientUnits="userSpaceOnUse"><stop offset="0" stop-color="#c7921e"/><stop offset=".5" stop-color="#e6bd3d"/><stop offset="1" stop-color="#f6da4b"/></linearGradient></defs><circle cx="120" cy="120" r="112" fill="none" stroke="url(#a)" stroke-width="2.9"/><g fill="none" stroke="url(#a)" stroke-linecap="round" stroke-linejoin="round" stroke-width="3.75"><path d="M116.25 93.52c.08-.08.32-.32.47-.49.14-.16.27-.33.4-.5.12-.17.24-.35.34-.53.11-.17.2-.36.29-.54s.17-.37.24-.56c.08-.19.14-.39.2-.58.06-.2.11-.39.16-.59l.12-.61.09-.62.06-.63c.02-.21.03-.42.04-.64.02-.21.02-.43.03-.64.01-.22.01-.44.01-.66.01-.21.01-.43.01-.65v-1.33c0-.22 0-.44.01-.66 0-.23.01-.45.02-.67 0-.22.01-.44.02-.66s.03-.44.04-.66c.02-.23.03-.45.05-.67s.03-.44.05-.66l.06-.65c.03-.22.05-.44.07-.66s.05-.44.07-.66c.03-.21.05-.43.08-.65.02-.22.05-.43.07-.65.03-.22.06-.43.08-.65.03-.21.05-.43.08-.65.03-.21.05-.43.08-.64s.05-.43.08-.64c.02-.22.05-.43.07-.64s.05-.43.07-.64.05-.42.07-.63l.06-.63c.02-.21.03-.42.05-.63s.04-.42.05-.63c.02-.21.03-.41.05-.62.01-.21.03-.42.04-.63.02-.2.03-.41.04-.62.02-.21.03-.42.05-.63.01-.2.02-.41.04-.62.01-.21.03-.42.04-.63.02-.21.03-.43.05-.64s.03-.42.05-.63l.06-.65.06-.65c.02-.21.05-.43.07-.65.03-.22.06-.44.08-.66l.09-.67c.03-.23.07-.45.1-.68l.12-.69c.04-.23.08-.46.12-.7.05-.23.09-.46.14-.7.05-.23.1-.46.16-.69s.11-.46.18-.69c.06-.23.12-.45.19-.67s.14-.44.22-.66c.07-.21.15-.42.23-.62.09-.2.17-.4.27-.59.09-.19.18-.38.28-.55.1-.18.21-.35.32-.51s.22-.31.34-.45c.12-.15.25-.28.38-.4s.26-.24.41-.34c.14-.1.28-.19.44-.26.15-.08.31-.14.47-.19a3.1 3.1 0 0 1 1.06-.13q.285 0 .57.06c.19.03.39.08.58.13.2.06.4.13.59.21.19.09.38.18.57.28.18.11.37.22.54.35.18.12.35.25.51.4.16.14.31.29.45.46.14.16.27.33.39.5.12.18.23.36.32.56.1.19.19.38.26.59a6.5 6.5 0 0 1 .36 1.27c.05.22.08.44.12.67.03.22.05.45.08.68.02.23.03.46.05.69l.03.68c.01.23.01.46.01.68.01.23.01.45.01.68 0 .22-.01.45-.01.67-.01.22-.01.44-.02.66l-.03.67-.03.65c-.02.22-.03.44-.05.66-.01.22-.03.43-.04.65-.02.22-.04.43-.05.65l-.06.64c-.02.22-.04.43-.05.65l-.06.64c-.02.21-.04.43-.05.64l-.06.64c-.01.21-.03.43-.05.64-.01.21-.03.43-.04.64s-.02.42-.04.64l-.03.64c0 .21-.01.43-.02.64s-.01.43-.02.64c-.01.22-.01.43-.02.65 0 .21 0 .42-.01.64 0 .21-.01.43-.01.64 0 .22 0 .44-.01.65 0 .22 0 .43-.01.65 0 .21 0 .43-.01.65 0 .21 0 .43-.01.65 0 .21-.01.43-.01.65-.01.22-.01.43-.02.65s-.02.44-.02.66l-.03.65c-.01.22-.02.44-.04.66-.01.22-.02.44-.04.66-.01.22-.03.44-.05.66l-.06.67-.06.66c-.02.22-.05.45-.07.67l-.06.66-.06.66c-.01.22-.03.44-.04.65l-.03.65c-.01.22-.01.43-.01.64 0 .22.01.43.02.64s.03.41.05.62c.02.2.05.41.08.61q.045.3.12.6c.05.19.1.39.16.58.07.19.14.38.22.57s.16.37.26.55.2.36.32.53c.12.18.32.43.38.51m-57.5 27.97c-.02-.11-.07-.45-.11-.67s-.09-.43-.14-.65q-.06-.315-.15-.63c-.05-.2-.11-.41-.17-.61s-.13-.4-.19-.6c-.07-.2-.14-.39-.22-.59a14 14 0 0 0-.49-1.14c-.08-.18-.17-.37-.27-.55-.09-.18-.19-.37-.3-.55-.1-.18-.2-.36-.31-.54-.11-.17-.22-.35-.34-.53-.11-.17-.23-.35-.35-.52l-.38-.53c-.13-.17-.27-.34-.4-.52-.14-.17-.28-.34-.42-.52-.15-.17-.29-.34-.44-.52-.15-.17-.3-.34-.45-.52-.15-.17-.3-.35-.45-.52-.15-.18-.3-.35-.43-.53-.14-.18-.28-.36-.41-.55-.13-.18-.25-.36-.36-.55-.12-.19-.22-.38-.31-.57-.1-.19-.18-.39-.25-.59-.06-.19-.12-.4-.16-.6-.04-.21-.07-.41-.08-.62-.02-.21-.02-.41-.01-.62.01-.2.04-.41.07-.61.04-.2.09-.39.14-.58.06-.19.13-.38.21-.55q.12-.27.27-.51c.1-.15.21-.3.33-.44.12-.13.25-.26.39-.37.13-.12.28-.22.43-.31.15-.1.31-.18.48-.25.17-.08.34-.14.52-.19.18-.06.36-.1.55-.13.19-.04.39-.06.59-.08s.4-.03.61-.03.42.01.63.02c.22.02.43.04.65.07s.44.06.66.11c.22.04.44.09.66.14.22.06.44.12.66.19s.45.14.66.22c.22.08.44.16.65.25.22.09.43.18.64.28s.42.2.62.3c.2.11.4.22.59.33.2.11.39.23.58.35.18.12.37.24.55.37.18.12.35.25.53.38.17.14.34.27.51.41.16.14.33.28.49.42s.31.29.47.43c.15.15.31.3.45.45.15.16.3.31.44.47.15.15.29.31.43.47s.27.32.41.48c.13.17.26.33.39.49.13.17.26.34.39.5.12.17.25.34.37.51l.36.51c.12.17.24.34.35.51.12.17.23.35.35.52.11.17.22.34.34.52.11.17.22.34.33.52.11.17.22.35.33.52.11.18.21.35.32.53.11.17.22.35.33.53.11.17.22.35.33.53l.33.54c.12.18.23.36.34.54.12.18.23.36.35.54.11.19.23.37.35.55a57 57 0 0 0 .75 1.12c.12.19.25.37.39.56.13.19.27.38.41.57s.28.38.42.58c.15.19.3.38.45.58.15.19.3.38.46.57l.48.54c.16.17.32.34.49.5.16.15.33.3.5.44.16.13.33.26.5.36q.255.165.51.27c.17.07.34.12.52.16q.255.045.51.03c.17-.01.34-.05.51-.1s.33-.12.5-.2c.16-.08.33-.18.49-.29s.32-.24.48-.37.31-.28.46-.43c.16-.15.3-.31.45-.47.14-.16.28-.32.42-.49s.27-.34.4-.51.25-.34.37-.52c.12-.17.24-.35.35-.52l.33-.54c.1-.18.21-.37.3-.55.1-.18.2-.37.29-.56.09-.18.18-.37.26-.56.09-.19.17-.38.25-.58.08-.19.15-.38.22-.58.07-.19.14-.39.21-.59s.13-.4.19-.6.12-.4.17-.6c.06-.2.11-.41.16-.61.05-.21.1-.41.14-.62.05-.2.09-.41.13-.62s.08-.42.11-.63c.04-.21.07-.42.1-.63l.09-.63c.03-.22.05-.43.07-.64.03-.22.05-.43.07-.65.02-.21.04-.43.05-.64.02-.22.03-.44.05-.65l.03-.65.03-.66c.01-.21.02-.43.02-.65.01-.22.01-.44.02-.66 0-.22 0-.43.01-.65v-1.32c0-.21-.01-.43-.01-.65s0-.44-.01-.65c0-.22 0-.44-.01-.66 0-.22-.01-.43-.01-.65s-.01-.43-.01-.65c-.01-.22-.02-.43-.02-.65-.01-.21-.01-.43-.02-.64-.01-.22-.01-.44-.02-.65-.01-.22-.02-.43-.02-.65l-.03-.64-.03-.64c0-.21-.01-.43-.02-.64l-.03-.64c-.01-.21-.02-.43-.04-.64l-.03-.64-.03-.63c-.02-.22-.03-.43-.04-.64s-.02-.42-.04-.64c-.01-.21-.02-.42-.04-.63-.01-.21-.02-.42-.04-.63-.01-.21-.02-.42-.04-.63-.01-.22-.03-.43-.04-.64-.02-.21-.03-.42-.04-.63-.02-.21-.03-.42-.05-.63s-.03-.42-.05-.63c-.01-.21-.03-.42-.04-.63-.02-.21-.04-.42-.05-.62-.02-.21-.03-.42-.05-.63s-.03-.42-.05-.63-.03-.42-.05-.63-.03-.42-.05-.62c-.02-.21-.04-.42-.05-.63l-.06-.63c-.01-.21-.03-.41-.05-.62s-.03-.42-.05-.63l-.06-.62c-.01-.21-.03-.42-.05-.63l-.06-.63c-.01-.21-.03-.41-.05-.62s-.04-.42-.05-.63l-.06-.63c-.01-.21-.03-.43-.05-.64-.01-.21-.03-.42-.05-.63-.01-.22-.03-.43-.05-.64-.01-.22-.03-.43-.05-.65-.01-.21-.03-.43-.04-.65-.02-.21-.03-.43-.05-.65-.01-.22-.02-.44-.04-.66-.01-.22-.02-.44-.04-.66l-.03-.67c-.01-.22-.02-.45-.04-.67l-.03-.69c0-.22-.01-.45-.02-.68s-.01-.46-.02-.69v-.69c0-.23 0-.46.01-.68l.03-.67.06-.66c.02-.21.05-.43.09-.64.03-.2.07-.41.11-.61.05-.2.1-.39.16-.58s.12-.38.2-.55c.07-.18.15-.36.24-.52.09-.17.18-.32.29-.48.1-.15.22-.29.34-.43.13-.13.26-.26.4-.38.15-.12.3-.23.47-.33.16-.09.34-.19.52-.27.19-.08.39-.15.59-.2.2-.06.42-.11.63-.15.21-.03.43-.06.65-.07s.44-.02.66 0c.22.01.44.03.65.07s.41.09.61.15c.19.07.39.15.56.24.18.09.34.2.5.32.15.13.29.26.41.41.13.15.25.32.35.49.11.17.2.35.29.54a12 12 0 0 1 .43 1.23c.06.22.11.44.16.66s.09.45.14.68l.12.67c.04.23.08.45.12.67.04.23.07.45.11.67s.08.43.11.65c.04.22.07.43.11.65.03.22.07.43.1.64.04.22.07.43.1.64.04.21.07.42.1.63s.07.42.1.63l.09.63c.04.21.07.41.1.62s.06.42.1.62l.09.62c.03.21.07.41.1.62s.06.41.1.62c.03.2.06.41.1.62.03.2.06.41.1.61.03.21.07.42.1.62.04.21.07.42.11.63.03.2.07.41.1.62.04.21.07.42.11.62.03.21.07.42.1.63.04.21.07.42.11.63.03.21.07.42.1.63s.07.42.1.64c.03.21.06.42.1.63l.09.64c.03.21.06.43.08.64.03.22.06.43.08.65.03.21.05.43.08.64l.06.66c.03.21.05.43.06.65.02.22.04.44.05.66.02.22.04.44.05.66.02.22.03.43.05.65s.03.44.05.65c.02.22.04.44.07.65.02.21.05.42.08.63.04.21.07.41.11.62.04.2.09.4.14.6.05.19.11.39.17.58s.13.37.21.55.17.36.26.53c.1.17.2.34.31.5s.23.31.37.46c.13.15.27.29.43.43.15.13.32.26.5.38.18.13.47.29.57.35m15.5-.88c.1-.05.43-.19.63-.3.19-.1.37-.22.55-.35q.255-.18.48-.39c.15-.14.29-.29.42-.44s.25-.31.37-.47c.11-.17.21-.34.31-.51.1-.18.19-.36.27-.55.08-.18.16-.37.23-.56.07-.2.13-.39.19-.59s.12-.41.17-.61l.15-.63c.04-.21.08-.42.12-.64l.12-.64c.04-.22.07-.43.11-.65s.07-.43.11-.65l.12-.64c.04-.22.08-.43.12-.64.05-.21.09-.42.14-.63.04-.21.09-.42.14-.63.04-.21.09-.42.14-.63.05-.2.1-.41.15-.62l.15-.61c.05-.21.1-.41.16-.62l.15-.61.15-.62.15-.61.15-.62.15-.61c.04-.21.09-.41.14-.62.04-.21.08-.41.13-.62l.12-.63.12-.63c.03-.21.07-.42.11-.63.03-.21.07-.42.11-.63.03-.21.07-.42.11-.63.03-.22.07-.43.11-.64l.12-.63c.04-.22.08-.43.12-.64.05-.21.09-.42.14-.63l.15-.63c.05-.21.11-.42.16-.63.06-.21.12-.42.19-.63.06-.2.13-.41.2-.62.07-.2.15-.41.23-.61.08-.21.16-.41.25-.61s.18-.41.28-.6c.1-.2.2-.4.31-.59s.23-.38.35-.56.24-.35.38-.52c.13-.16.27-.32.42-.46.14-.15.3-.29.46-.41s.32-.23.5-.32c.17-.1.36-.18.55-.24s.39-.11.59-.14c.2-.04.41-.05.61-.06q.315 0 .63.03c.21.02.42.06.62.11s.41.11.6.18.38.16.56.25.35.2.5.31c.16.11.3.23.44.37.13.13.25.27.36.41.11.15.21.3.3.47.09.16.16.33.23.5.07.18.13.36.18.55.05.18.1.38.13.58.04.19.06.4.08.6.03.21.04.42.05.63v.66q0 .33-.03.66c-.01.23-.03.46-.05.68-.02.23-.05.46-.07.69l-.09.69c-.04.23-.07.46-.11.69-.03.23-.07.45-.11.68-.03.22-.07.45-.11.67s-.07.44-.11.66-.08.43-.11.65l-.12.64c-.03.21-.07.42-.11.63-.03.21-.07.42-.11.62-.03.21-.07.42-.1.62-.04.21-.08.41-.11.61-.04.21-.07.41-.11.61-.03.21-.07.41-.1.61s-.07.4-.1.6c-.04.21-.07.41-.1.61-.04.2-.07.4-.1.6l-.09.61c-.04.21-.07.41-.1.61l-.09.62c-.03.2-.05.41-.08.62l-.09.62c-.03.21-.05.42-.08.63s-.06.42-.08.63l-.09.63c-.03.22-.05.43-.08.64l-.09.64-.09.64-.09.64-.09.65c-.04.21-.07.43-.11.64-.03.22-.07.43-.1.65-.04.21-.08.43-.11.64l-.12.65c-.04.21-.09.42-.13.64-.04.21-.09.43-.13.64-.05.21-.09.43-.14.64-.04.21-.09.42-.13.63-.04.22-.08.43-.12.64-.03.21-.07.42-.1.62l-.09.63-.06.61-.03.61c0 .2 0 .4.01.6.01.19.03.39.05.59.02.19.05.38.09.58q.06.285.15.57c.06.18.12.37.2.55.08.19.17.37.27.55s.28.44.33.53m0 0c.11-.06.43-.22.63-.33s.39-.23.57-.35c.19-.12.36-.24.53-.36.17-.13.34-.26.5-.39.15-.13.3-.27.45-.41.14-.14.28-.28.41-.42.14-.15.26-.29.39-.44.12-.15.23-.31.35-.46.11-.16.22-.32.32-.48s.2-.32.3-.49c.09-.16.18-.33.27-.5s.17-.34.26-.52c.08-.17.16-.35.23-.53a9 9 0 0 0 .22-.55c.07-.18.14-.36.21-.55s.13-.38.2-.57c.06-.19.13-.38.19-.58.06-.19.12-.39.18-.59.07-.2.13-.39.19-.6l.18-.6c.06-.21.12-.41.19-.62.06-.2.12-.41.19-.62s.13-.42.2-.63l.21-.63c.07-.22.15-.43.23-.65.07-.21.15-.43.24-.64.08-.22.17-.43.26-.65s.18-.43.27-.65c.1-.21.2-.43.3-.64s.21-.42.32-.62c.11-.21.22-.41.33-.61.12-.2.23-.39.36-.58.12-.19.24-.37.37-.55.13-.17.26-.35.39-.51.14-.16.27-.32.42-.47.14-.14.28-.28.43-.41.14-.13.3-.25.45-.36s.31-.22.47-.3c.16-.09.32-.17.49-.24q.255-.09.51-.15c.18-.04.35-.07.53-.09.17-.01.35-.01.52 0s.35.04.51.08c.17.03.33.09.48.15.16.07.31.14.44.24.14.09.27.19.39.31.11.12.22.25.31.4.1.14.18.3.25.46.07.17.13.35.18.53s.1.38.13.57q.06.3.09.6c.03.21.05.42.06.62.02.21.03.42.04.62 0 .21.01.42.01.63 0 .2 0 .41-.01.62 0 .2-.01.41-.02.61-.01.21-.02.41-.04.62-.02.2-.03.41-.06.61-.02.21-.04.41-.07.62l-.09.61c-.03.2-.06.41-.1.61l-.12.61c-.04.2-.08.4-.13.61-.04.2-.09.4-.14.6-.05.21-.1.41-.15.61-.06.2-.11.4-.17.6-.05.21-.11.41-.17.61l-.18.6c-.07.2-.13.4-.2.6-.06.2-.13.4-.19.6-.07.21-.14.41-.21.61l-.21.6c-.07.2-.15.4-.22.6s-.15.4-.22.6c-.08.2-.15.4-.23.59-.07.2-.15.4-.23.6-.07.2-.15.4-.23.6s-.15.4-.23.6-.16.4-.23.6l-.24.6c-.08.2-.15.4-.23.6-.08.19-.16.39-.23.59-.08.2-.16.4-.23.6-.08.2-.15.4-.23.6-.07.2-.15.4-.22.6-.08.2-.15.4-.22.6l-.21.6-.21.6c-.07.2-.14.4-.2.6-.07.2-.13.4-.19.6-.07.2-.13.4-.19.6s-.12.41-.17.61c-.06.2-.12.4-.17.6s-.11.4-.16.6c-.05.21-.09.41-.14.61s-.09.4-.13.61l-.12.6c-.04.21-.07.41-.11.61l-.09.61c-.03.21-.05.41-.08.61l-.06.62c-.01.2-.03.41-.04.61l-.03.62c0 .2 0 .51-.01.61m-23.87-22.75c-.02.13-.06.49-.09.74-.04.24-.07.49-.11.73-.04.25-.08.49-.12.73-.03.25-.07.49-.11.74-.04.24-.07.48-.11.73l-.09.73c-.03.24-.06.49-.08.73-.02.25-.04.49-.05.74s-.01.49-.01.74.02.63.02.75m-14.75-6.48V98m29.98 2.27c-.04.12-.18.47-.26.71-.08.25-.15.49-.22.74-.07.24-.13.49-.19.74l-.18.74c-.06.25-.12.5-.19.75-.06.25-.12.49-.19.74-.07.24-.15.48-.23.72s-.23.6-.27.71m5.77 30.76c.04-.1.15-.4.22-.6s.14-.4.21-.61l.18-.61c.06-.21.12-.42.17-.63s.11-.42.15-.63c.05-.21.1-.42.14-.64.05-.21.09-.43.13-.64l.12-.66c.04-.21.07-.43.11-.65.03-.22.06-.44.1-.66l.09-.67.09-.66c.03-.23.05-.45.08-.67s.06-.45.08-.67c.03-.22.06-.45.08-.67l.09-.67c.03-.22.05-.45.08-.67l.09-.67c.03-.22.06-.44.1-.66.03-.22.06-.44.1-.66.03-.22.07-.44.11-.66.03-.22.07-.43.11-.65.05-.22.09-.43.13-.65.05-.21.1-.42.15-.64l.15-.63.18-.63c.06-.2.12-.41.19-.61.06-.21.13-.41.2-.61.08-.2.15-.4.23-.6.08-.19.16-.39.25-.58.09-.2.18-.39.27-.58.1-.19.2-.38.3-.56.1-.19.21-.37.32-.55.12-.18.3-.45.35-.54m0 0c.09.04.36.16.54.23q.255.12.54.24c.18.08.36.16.55.23.18.08.37.16.55.24l.57.24.57.24c.2.08.39.16.58.24.2.08.39.17.59.25s.39.16.59.25c.2.08.4.16.6.25.2.08.4.16.6.25.2.08.4.17.6.26.2.08.4.17.61.25l.6.27c.21.09.41.18.61.27.21.08.41.17.61.27.21.09.41.18.61.27.21.09.41.19.61.28.2.1.4.19.6.29s.4.19.6.29l.6.3c.19.1.39.21.58.31.2.1.39.21.58.32.19.1.38.21.57.32s.37.22.56.34c.18.11.36.23.54.34l.54.36c.17.12.34.24.51.37.17.12.34.25.51.38l.48.39c.16.14.32.27.47.41.16.14.31.28.46.42.14.14.29.28.43.43.15.14.29.29.43.44s.27.3.41.45c.13.15.26.31.39.46.13.16.26.32.38.48s.25.32.37.48.24.33.35.49c.12.17.23.34.34.51q.18.255.33.51c.11.17.22.34.32.52.11.17.21.35.31.53.1.17.2.35.3.53.09.18.19.36.28.55.1.18.19.36.28.55.09.18.18.37.27.56.08.18.17.37.25.56.09.19.17.38.25.57.09.19.17.39.24.58.08.19.16.39.24.58.08.2.15.39.23.59.07.19.14.39.22.59l.21.6.21.6c.06.2.13.4.2.6.06.2.13.4.2.61.06.2.12.4.19.61.06.2.12.41.19.61l.18.62.18.61c.06.21.12.42.18.62.06.21.12.42.18.62.05.21.11.42.17.63.06.2.11.41.17.62s.11.42.17.62c.06.21.11.42.17.63s.11.42.17.62c.06.21.11.42.17.63.05.21.11.42.17.62.05.21.11.42.17.63.05.21.11.41.17.62s.11.42.17.62c.06.21.12.42.18.62.05.21.11.42.17.62a50 50 0 0 0 .37 1.24l.18.61c.06.2.13.41.19.61.07.2.13.41.2.61.06.2.13.4.2.6.06.2.13.4.2.6l.21.6c.07.2.14.4.22.59.07.2.14.4.22.59.07.2.15.39.23.59.08.19.16.39.24.58l.24.57c.08.2.17.39.25.57.09.19.17.38.26.57s.18.37.27.56c.09.18.19.37.28.55.1.18.19.37.29.55l.3.54c.1.18.2.35.31.53.1.18.21.35.32.53.11.17.22.34.33.52.11.17.22.34.34.51s.24.33.36.5.24.33.36.5c.13.16.26.32.38.48.13.16.26.32.4.48.13.16.27.32.41.47.13.16.27.31.42.46.14.15.29.3.43.45a18 18 0 0 0 .92.87q.24.225.48.42c.17.14.33.28.5.42.17.13.34.26.52.4.17.13.35.26.53.38.18.13.36.26.55.38.18.13.37.25.56.37.2.12.39.24.59.35.2.12.4.23.6.34.21.12.52.28.62.33m-156.37-.5c.1-.05.41-.22.61-.33.21-.11.4-.23.6-.34.2-.12.39-.24.58-.36s.37-.25.56-.37l.54-.39c.17-.13.35-.26.52-.39.17-.14.34-.27.5-.41.17-.14.33-.28.49-.42s.32-.29.47-.43c.16-.15.31-.3.46-.45s.29-.3.44-.45c.14-.15.28-.31.42-.46.14-.16.28-.32.41-.48.14-.16.27-.32.4-.48s.26-.33.38-.49c.13-.17.25-.34.37-.51q.18-.24.36-.51c.11-.17.23-.34.34-.52.11-.17.22-.35.33-.52.11-.18.21-.36.32-.54.1-.18.21-.36.31-.54s.2-.37.29-.55c.1-.19.2-.37.29-.56s.19-.38.28-.56c.09-.19.18-.38.26-.58.09-.19.18-.38.26-.57.09-.19.17-.39.25-.58.08-.2.16-.4.24-.59.08-.2.16-.4.24-.59.07-.2.15-.4.22-.6.08-.2.15-.4.22-.6.07-.21.14-.41.21-.61s.14-.41.21-.61.13-.41.2-.61c.07-.21.13-.42.2-.62.06-.21.12-.41.19-.62.06-.21.12-.42.18-.62.06-.21.12-.42.19-.63.06-.21.11-.42.17-.63l.18-.62c.06-.21.12-.42.17-.63.06-.21.12-.42.17-.64.06-.21.12-.42.17-.63.06-.21.12-.42.17-.63.06-.21.11-.42.17-.63.05-.21.11-.42.16-.63.06-.21.12-.42.17-.63.06-.22.11-.43.17-.64.05-.21.11-.42.17-.63.05-.21.11-.41.16-.62l.18-.63c.05-.21.11-.42.17-.62.06-.21.11-.42.17-.63.06-.2.12-.41.18-.62l.18-.61c.07-.21.13-.41.19-.62.06-.2.13-.4.19-.6.06-.21.13-.41.19-.61.07-.2.14-.4.2-.6l.21-.6c.07-.2.14-.39.21-.59s.15-.39.22-.59c.07-.19.15-.39.22-.58l.24-.57q.105-.285.24-.57l.24-.57c.09-.18.17-.37.26-.55.09-.19.18-.37.27-.55l.27-.54c.1-.18.19-.36.29-.54.09-.17.19-.35.29-.52.1-.18.21-.35.31-.52s.21-.34.32-.51c.1-.17.21-.34.33-.5.11-.17.22-.33.34-.49.11-.16.23-.32.35-.48s.24-.32.37-.48c.12-.15.25-.31.38-.46l.39-.45.41-.44c.14-.14.28-.29.42-.43.15-.14.29-.28.44-.42.15-.13.3-.27.45-.4.16-.14.31-.27.47-.4s.32-.25.49-.38c.16-.12.33-.25.5-.37s.35-.24.52-.35c.18-.12.36-.23.54-.35.18-.11.37-.22.56-.33.18-.1.38-.21.57-.31s.39-.2.59-.3.41-.2.62-.29c.2-.09.42-.18.63-.27s.43-.17.65-.26c.22-.08.45-.16.68-.24a10 10 0 0 1 .69-.22"/><path d="M74.25 120.61c.08.07.31.28.45.43.15.15.3.3.44.45s.27.31.4.47q.21.24.39.48c.13.17.25.34.37.51s.23.34.35.51l.33.54c.1.17.21.36.31.54.1.19.2.37.29.56.1.19.19.38.28.57s.18.39.26.58c.09.2.17.4.25.6.08.19.16.4.24.6s.15.4.22.61c.08.2.15.41.22.62.07.2.13.41.2.62.06.21.13.42.19.63.06.22.12.43.18.64l.18.64c.06.22.11.43.17.65.05.21.11.43.16.64.06.22.11.44.16.65.05.22.1.44.15.65.05.22.1.44.15.65.05.22.1.44.15.65.05.22.1.44.15.65.05.22.1.43.14.65l.15.64.15.64.15.63.15.63c.05.21.1.41.16.62.05.21.1.41.16.61.05.21.11.41.16.61l.18.6m21.83-19.76c.12-.03.49-.12.72-.18.24-.05.48-.09.71-.12.24-.04.47-.06.7-.08s.45-.03.68-.03c.22 0 .44.01.66.02.22.02.44.04.66.07.21.03.42.07.63.11s.42.1.62.15c.2.06.4.13.6.2s.39.15.58.23.38.18.57.27c.18.1.36.2.54.31.18.1.35.22.52.34s.34.24.5.37.32.26.48.4c.15.14.31.28.45.43.15.15.29.3.43.46.14.15.28.31.41.48a9 9 0 0 1 .73 1.03c.11.17.22.36.33.54.1.18.2.37.3.56.09.19.18.38.26.58.09.19.17.39.24.59q.12.3.21.6c.07.21.12.41.18.62.05.2.1.41.14.62.05.21.08.42.11.63.04.21.06.42.08.64.02.21.04.42.05.63 0 .22.01.43 0 .64 0 .22-.01.43-.03.64-.01.22-.03.43-.06.64s-.06.42-.1.63c-.05.21-.09.42-.15.63-.05.21-.11.42-.18.62-.06.21-.14.41-.22.61s-.17.4-.26.6c-.1.2-.2.4-.31.59s-.22.38-.34.57c-.13.19-.26.38-.4.56-.13.18-.28.36-.43.54-.15.17-.4.43-.48.52m22-18c-.12-.04-.48-.14-.71-.2a9 9 0 0 0-.71-.14c-.23-.04-.46-.06-.69-.08s-.46-.03-.68-.03c-.23-.01-.45 0-.67.02q-.33.015-.66.06c-.21.03-.43.07-.64.12-.21.04-.42.1-.62.16-.21.06-.41.13-.61.2s-.4.16-.59.24c-.2.09-.39.19-.58.29-.18.1-.37.2-.55.31-.18.12-.36.24-.53.36q-.255.18-.51.39c-.17.13-.33.27-.49.41-.15.15-.31.3-.46.45-.15.16-.3.31-.44.48-.14.16-.28.33-.41.5s-.26.34-.39.52l-.36.54c-.11.19-.22.38-.32.57-.11.19-.21.38-.3.58-.1.19-.19.39-.27.59-.09.2-.17.41-.24.61-.07.21-.14.42-.21.62-.06.21-.11.42-.17.64-.05.21-.09.42-.13.63a15 15 0 0 0-.17 1.3 14 14 0 0 0-.01 1.29c.01.22.03.44.06.65.02.22.05.43.09.64.04.22.08.43.13.64l.18.63c.07.21.14.41.23.62.08.2.17.4.26.6.1.2.2.4.32.59.11.2.23.39.36.58.12.19.26.38.4.56.15.18.3.36.46.54.16.17.42.43.5.52"/><path d="M82.29 141.38c.11-.02.48-.05.71-.09.23-.03.46-.06.69-.1s.45-.09.67-.13c.22-.05.43-.1.65-.16l.63-.18c.2-.06.4-.13.61-.2.2-.07.39-.15.59-.23.19-.08.39-.16.57-.24l.57-.27c.18-.09.37-.19.55-.28.18-.1.36-.2.53-.31.18-.1.36-.21.53-.32s.35-.22.52-.33c.17-.12.34-.24.5-.36.17-.12.34-.24.51-.37.16-.12.33-.25.49-.38.17-.13.33-.26.49-.39.17-.13.33-.27.49-.41s.32-.27.49-.42l.48-.42c.16-.15.33-.29.49-.44l.48-.45c.17-.15.33-.3.5-.45.16-.15.32-.31.49-.46l.5-.47c.17-.15.34-.31.51-.47s.34-.32.51-.47c.18-.16.35-.32.53-.48.17-.16.35-.31.53-.47.17-.15.35-.3.53-.45.19-.15.37-.3.55-.45.19-.14.37-.28.56-.42.18-.13.37-.27.56-.39.19-.13.38-.25.57-.37s.39-.23.58-.33c.19-.11.39-.2.59-.29.19-.09.39-.18.59-.25.2-.08.4-.14.61-.2.2-.06.4-.11.61-.15.2-.04.41-.06.62-.09.2-.02.41-.03.61-.03.21 0 .41 0 .61.02.2.01.4.03.6.07.2.03.39.07.58.12.19.04.37.1.55.17.18.06.35.13.52.21s.33.17.48.26c.15.1.3.2.44.31s.27.23.39.35c.12.13.23.26.33.4.1.13.19.28.26.43.08.15.15.31.2.47.06.17.1.34.14.51.03.17.05.35.07.54.01.18.01.37.01.56-.01.19-.02.39-.05.58-.02.2-.05.4-.1.6-.04.2-.09.41-.14.61-.06.21-.13.41-.2.62s-.15.41-.23.62c-.09.2-.18.41-.28.61-.1.21-.2.41-.31.61s-.23.4-.35.6c-.12.19-.25.38-.38.57s-.26.38-.4.56-.28.36-.42.53q-.225.27-.45.51c-.15.17-.31.34-.46.5-.16.16-.32.32-.49.48-.16.15-.32.31-.49.46l-.51.45c-.17.15-.34.3-.51.44-.17.15-.35.29-.52.44-.17.14-.35.28-.52.42-.18.15-.35.29-.53.43-.17.14-.35.28-.52.42-.18.14-.35.28-.52.42l-.52.43c-.17.14-.34.29-.5.43-.17.14-.34.29-.5.43-.17.15-.33.3-.49.44l-.48.45c-.15.15-.31.3-.46.45-.16.15-.31.3-.46.46-.15.15-.3.3-.44.46a18 18 0 0 0-.84.95c-.14.16-.27.33-.4.49-.13.17-.26.33-.39.5l-.36.51c-.12.17-.24.35-.35.52-.12.18-.23.35-.34.53-.1.18-.21.36-.31.54-.1.19-.2.37-.29.56s-.18.37-.27.57c-.09.19-.17.38-.25.58-.08.19-.16.39-.23.59s-.14.41-.21.61l-.18.62c-.05.22-.11.43-.15.64-.05.22-.09.44-.13.66s-.08.45-.11.67c-.03.23-.06.58-.08.69m51.61-3.93c-.03-.11-.12-.48-.19-.71-.06-.23-.13-.46-.2-.68-.08-.22-.15-.43-.23-.65-.08-.21-.16-.41-.25-.61s-.18-.4-.27-.59-.18-.38-.28-.56-.2-.36-.31-.54c-.1-.17-.21-.35-.32-.51-.11-.17-.22-.34-.34-.5-.12-.17-.23-.33-.36-.48-.12-.16-.24-.32-.37-.47l-.39-.45c-.13-.15-.27-.3-.4-.45-.14-.15-.28-.29-.42-.44-.15-.14-.29-.29-.44-.43s-.3-.29-.45-.43-.31-.28-.46-.43c-.16-.14-.32-.28-.48-.43l-.49-.43c-.17-.15-.34-.29-.51-.44l-.51-.45c-.18-.15-.35-.31-.53-.46-.18-.16-.36-.32-.54-.47-.17-.16-.36-.32-.54-.49-.18-.16-.36-.32-.53-.49-.18-.16-.36-.33-.54-.5-.18-.16-.36-.33-.53-.5l-.52-.52c-.17-.17-.33-.34-.5-.52-.16-.18-.32-.35-.48-.53s-.31-.35-.46-.53-.29-.36-.43-.54-.27-.36-.4-.55q-.195-.27-.36-.54c-.12-.19-.23-.37-.33-.56-.1-.18-.19-.37-.28-.55-.08-.19-.16-.37-.23-.56-.07-.18-.13-.37-.19-.56a5 5 0 0 1-.12-.55c-.04-.19-.06-.38-.07-.56-.02-.19-.02-.38-.01-.56.01-.19.03-.38.06-.56.03-.19.08-.37.13-.55.05-.19.12-.37.19-.54.07-.18.15-.35.25-.52.09-.17.19-.34.3-.49.11-.16.23-.32.36-.46.12-.15.26-.28.4-.41s.29-.26.45-.37.32-.21.49-.31c.17-.09.35-.17.53-.24s.37-.13.56-.17c.19-.05.39-.08.59-.1s.41-.02.62-.02.42.02.63.04c.22.03.43.06.65.1.21.05.43.1.65.17.22.06.44.13.65.21.22.08.44.17.65.26s.43.2.64.3c.21.11.41.23.61.34.21.12.41.25.6.38s.38.26.57.4c.18.14.36.28.54.43.18.14.35.29.53.44.17.15.33.3.5.46.17.15.33.31.49.46q.255.24.48.48c.16.15.32.31.48.47.16.15.31.31.47.46.16.16.32.31.47.46.16.15.32.3.48.44s.32.29.48.42c.17.14.33.27.5.4.16.13.33.25.51.37.17.12.34.23.52.34.18.1.37.2.55.29.19.1.38.18.58.26q.285.12.6.21c.21.06.42.11.64.15.21.04.44.08.67.1s.59.03.71.04m12.98 6c-.1 0-.41.01-.62.01-.22.01-.43.01-.65.01-.21-.01-.43-.01-.65-.02s-.44-.02-.67-.04c-.22-.01-.44-.03-.67-.05-.22-.03-.45-.05-.68-.08-.22-.03-.45-.07-.67-.1-.23-.04-.45-.08-.68-.13l-.67-.15c-.22-.06-.44-.11-.66-.18-.22-.06-.43-.13-.65-.2-.21-.08-.42-.15-.63-.24-.21-.08-.42-.17-.62-.26-.2-.1-.4-.19-.59-.3q-.3-.15-.57-.33c-.19-.11-.37-.23-.55-.36-.17-.13-.34-.26-.51-.4-.16-.14-.32-.28-.47-.43a7 7 0 0 1-.45-.47c-.14-.17-.27-.34-.4-.51-.12-.18-.24-.36-.35-.55s-.22-.39-.31-.59c-.1-.21-.22-.53-.26-.63m-67.98 4.5c-.08.1-.29.48-.46.65-.18.18-.39.31-.61.42-.21.1-.46.17-.71.22s-.52.07-.78.08c-.27.02-.56.01-.83 0-.28 0-.57-.03-.84-.03-.27-.01-.55-.03-.81-.02-.26 0-.63.04-.75.05"/><path d="M181.25 187.5c-.07-.09-.27-.36-.41-.53-.13-.18-.27-.35-.41-.52s-.28-.34-.42-.5c-.15-.17-.29-.33-.44-.49-.14-.17-.29-.32-.44-.48s-.3-.31-.45-.47c-.15-.15-.31-.3-.46-.45-.16-.15-.31-.3-.47-.45-.16-.14-.32-.29-.48-.43-.15-.14-.32-.28-.48-.42s-.32-.28-.49-.41c-.16-.14-.33-.27-.49-.41-.17-.13-.34-.26-.5-.39l-.51-.39c-.17-.13-.34-.25-.52-.38-.17-.12-.34-.25-.51-.37-.18-.12-.35-.24-.53-.36-.17-.13-.35-.25-.53-.36-.17-.12-.35-.24-.53-.36-.18-.11-.35-.23-.53-.34-.18-.12-.36-.23-.54-.35-.18-.11-.36-.22-.54-.34-.19-.11-.37-.22-.55-.33s-.36-.22-.55-.33c-.18-.11-.36-.22-.55-.33-.18-.11-.36-.22-.55-.33-.18-.11-.37-.22-.55-.32-.18-.11-.37-.22-.55-.33-.19-.1-.37-.21-.56-.32-.18-.11-.37-.21-.55-.32-.19-.11-.37-.22-.56-.32-.18-.11-.37-.22-.55-.33-.18-.1-.37-.21-.55-.32-.19-.11-.37-.22-.55-.33-.19-.11-.37-.22-.56-.33q-.27-.15-.54-.33c-.19-.11-.37-.22-.55-.33s-.36-.22-.54-.34c-.19-.11-.37-.22-.55-.34-.18-.11-.36-.23-.53-.34-.18-.12-.36-.24-.54-.35-.18-.12-.35-.24-.53-.36s-.35-.24-.53-.36c-.17-.13-.34-.25-.52-.37-.17-.13-.34-.25-.51-.38s-.34-.25-.51-.38c-.16-.13-.33-.26-.5-.39-.16-.14-.33-.27-.49-.4-.16-.14-.32-.28-.48-.41l-.48-.42-.46-.43c-.15-.15-.31-.29-.45-.44l-.45-.45-.43-.46-.42-.48c-.13-.16-.27-.32-.4-.48-.13-.17-.26-.33-.39-.5s-.26-.34-.38-.51c-.12-.18-.24-.35-.36-.53s-.23-.36-.35-.54c-.11-.18-.22-.37-.33-.55-.1-.19-.21-.38-.31-.57-.11-.19-.21-.38-.31-.58-.1-.19-.2-.38-.3-.58-.1-.19-.19-.39-.29-.58-.1-.2-.2-.39-.3-.59-.09-.19-.19-.38-.29-.58l-.3-.57q-.15-.3-.3-.57c-.1-.19-.21-.38-.31-.56l-.33-.54c-.11-.18-.22-.36-.34-.53s-.23-.34-.36-.51c-.12-.16-.25-.32-.38-.48a8.8 8.8 0 0 0-1.29-1.29c-.15-.13-.32-.25-.48-.37-.17-.11-.44-.27-.53-.33"/><path d="M132.25 184.88v-.66c0-.22.01-.44.01-.66.01-.22.01-.44.02-.65l.03-.66c.01-.21.03-.43.04-.65.02-.22.03-.43.05-.65l.06-.65c.02-.21.04-.43.07-.64.02-.22.04-.43.07-.65l.09-.64.09-.64c.04-.21.07-.42.11-.64.04-.21.07-.42.11-.63s.08-.42.13-.63c.04-.21.08-.42.13-.63.04-.21.09-.42.14-.63s.1-.42.15-.62c.05-.21.11-.42.16-.63.06-.2.11-.41.17-.62l.18-.61c.06-.21.12-.41.18-.61.07-.21.13-.41.2-.61.07-.21.14-.41.21-.61.06-.2.14-.4.21-.6.07-.21.15-.41.22-.6.08-.2.15-.4.23-.6s.16-.4.24-.59c.08-.2.17-.4.25-.59.09-.2.17-.39.26-.59.09-.19.17-.39.26-.58s.19-.39.28-.58.19-.38.28-.57c.1-.19.2-.38.29-.57l.3-.57c.11-.19.21-.37.31-.56.11-.19.21-.37.32-.56.11-.18.22-.37.33-.55s.22-.37.33-.55.23-.36.34-.54c.12-.18.23-.36.35-.54l.36-.54c.12-.17.24-.35.37-.53l.37-.52c.13-.18.26-.35.39-.52s.26-.35.39-.52.26-.34.4-.51c.13-.17.27-.33.41-.5.13-.17.27-.34.41-.5.14-.17.28-.33.43-.5.14-.16.28-.32.43-.48.14-.17.29-.33.44-.49s.29-.32.45-.47c.15-.16.37-.4.45-.48m-51.61 3.93c-.07.07-.3.28-.44.42-.15.14-.29.29-.43.44s-.28.3-.41.45c-.14.16-.27.32-.41.48l-.39.48c-.13.17-.26.33-.38.5-.13.17-.26.34-.38.51-.13.17-.25.34-.37.52-.13.17-.25.34-.37.52-.13.17-.25.35-.37.52-.13.18-.25.36-.37.53-.12.18-.25.35-.37.53s-.25.35-.37.53c-.13.17-.26.35-.38.52-.13.17-.26.34-.39.52-.13.17-.26.34-.39.5-.14.17-.27.34-.41.5-.13.17-.27.33-.41.49-.15.16-.29.31-.43.47-.15.15-.3.31-.45.46l-.45.45c-.15.14-.31.29-.47.43-.15.14-.31.29-.47.42-.16.14-.32.28-.49.42l-.49.4c-.17.13-.34.27-.51.4-.17.12-.34.25-.51.38s-.34.25-.52.38c-.17.12-.35.24-.53.37-.17.12-.35.24-.53.36s-.36.23-.54.35-.36.24-.54.35c-.18.12-.36.23-.55.34-.18.12-.37.23-.55.34-.18.12-.37.23-.55.34-.19.11-.38.22-.56.33-.19.11-.37.22-.56.33s-.37.21-.56.32-.38.22-.56.32l-.57.33c-.18.1-.37.21-.56.32-.19.1-.38.21-.56.32-.19.1-.38.21-.57.32-.18.1-.37.21-.56.32-.19.1-.37.21-.56.32s-.37.21-.56.32-.37.22-.56.33c-.19.1-.37.21-.56.32-.18.11-.37.22-.55.33-.19.11-.37.22-.55.34-.19.11-.37.22-.55.33-.18.12-.37.23-.55.35-.18.11-.36.23-.54.34l-.54.36c-.17.11-.35.23-.53.35s-.35.25-.53.37l-.52.37c-.17.13-.35.25-.52.38l-.51.39c-.17.13-.34.26-.51.4-.16.13-.33.26-.49.4-.17.14-.33.28-.5.42l-.48.42c-.16.14-.32.29-.48.44l-.47.44c-.15.15-.3.31-.46.46-.15.16-.3.31-.45.47s-.3.32-.44.49c-.15.16-.29.33-.43.49-.15.17-.29.34-.43.51-.14.18-.28.35-.41.53-.14.17-.34.45-.4.53m34.24-7c.02-.09.07-.37.1-.56l.12-.58c.05-.19.09-.39.14-.59l.15-.6c.05-.2.11-.4.16-.61l.18-.61c.06-.21.12-.42.19-.63.06-.21.12-.42.19-.63s.13-.43.2-.64.13-.43.2-.64c.07-.22.14-.43.2-.65.07-.22.14-.43.21-.65.06-.22.13-.44.2-.65.06-.22.13-.44.19-.66.07-.22.13-.44.19-.65l.18-.66c.06-.22.12-.44.17-.65.06-.22.11-.44.16-.66.05-.21.1-.43.14-.65.05-.21.09-.43.13-.65.04-.21.07-.43.1-.64.04-.21.07-.43.09-.64q.045-.315.06-.63c.02-.21.03-.42.04-.62.01-.21.02-.42.02-.62-.01-.21-.01-.41-.02-.61s-.03-.4-.05-.6a11 11 0 0 0-.19-1.17l-.15-.57a9 9 0 0 0-.42-1.09c-.09-.18-.18-.36-.28-.53s-.2-.34-.32-.51c-.11-.17-.23-.33-.36-.5-.13-.16-.27-.32-.41-.48-.15-.15-.31-.31-.47-.46s-.43-.36-.52-.44"/></g></svg>